<?xml version="1.0" encoding="UTF-8" standalone="no"?>
<svg
   width="24"
   height="24"
   viewBox="0 0 6.35 6.35"
   version="1.1"
   id="svg8"
   inkscape:version="1.3 (0e150ed6c4, 2023-07-21)"
   sodipodi:docname="icons_font_group.svg"
   xml:space="preserve"
   xmlns:inkscape="http://www.inkscape.org/namespaces/inkscape"
   xmlns:sodipodi="http://sodipodi.sourceforge.net/DTD/sodipodi-0.dtd"
   xmlns="http://www.w3.org/2000/svg"
   xmlns:svg="http://www.w3.org/2000/svg"
   xmlns:rdf="http://www.w3.org/1999/02/22-rdf-syntax-ns#"
   xmlns:cc="http://creativecommons.org/ns#"
   xmlns:dc="http://purl.org/dc/elements/1.1/"><defs
     id="defs2" /><sodipodi:namedview
     id="base"
     pagecolor="#ededed"
     bordercolor="#666666"
     borderopacity="1.0"
     inkscape:pageopacity="0.0"
     inkscape:pageshadow="2"
     inkscape:zoom="1"
     inkscape:cx="882"
     inkscape:cy="581.5"
     inkscape:document-units="px"
     inkscape:current-layer="layer1"
     inkscape:document-rotation="0"
     showgrid="false"
     units="px"
     inkscape:showpageshadow="true"
     borderlayer="false"
     inkscape:window-width="1920"
     inkscape:window-height="1017"
     inkscape:window-x="1072"
     inkscape:window-y="-8"
     inkscape:window-maximized="1"
     inkscape:pagecheckerboard="0"
     inkscape:deskcolor="#d1d1d1" /><metadata
     id="metadata5"><rdf:RDF><cc:Work
         rdf:about=""><dc:format>image/svg+xml</dc:format><dc:type
           rdf:resource="http://purl.org/dc/dcmitype/StillImage" /></cc:Work></rdf:RDF></metadata><g
     inkscape:label="Layer 1"
     inkscape:groupmode="layer"
     id="layer1"
     transform="translate(-481.25952,-323.0306)"><g
       id="g7"><rect
         style="opacity:0;fill:#ff18f5;fill-opacity:1;fill-rule:evenodd;stroke:none;stroke-width:0.264583;stroke-opacity:1"
         id="rect28"
         width="6.3499999"
         height="6.3499999"
         x="481.25952"
         y="323.03061" /><g
         style="fill:none"
         id="g30"
         transform="matrix(0.26458333,0,0,0.26458333,482.31783,324.08894)"><path
           d="M 9.5,2 C 9.5,2.82843 8.82843,3.5 8,3.5 7.17157,3.5 6.5,2.82843 6.5,2 6.5,1.17157 7.17157,0.5 8,0.5 8.82843,0.5 9.5,1.17157 9.5,2 Z"
           fill="#687182"
           id="path28"
           style="stroke:none" /><path
           d="M 9.5,8 C 9.5,8.82843 8.82843,9.5 8,9.5 7.17157,9.5 6.5,8.82843 6.5,8 6.5,7.17157 7.17157,6.5 8,6.5 8.82843,6.5 9.5,7.17157 9.5,8 Z"
           fill="#687182"
           id="path29"
           style="stroke:none" /><path
           d="m 9.5,14 c 0,0.8284 -0.67157,1.5 -1.5,1.5 -0.82843,0 -1.5,-0.6716 -1.5,-1.5 0,-0.8284 0.67157,-1.5 1.5,-1.5 0.82843,0 1.5,0.6716 1.5,1.5 z"
           fill="#687182"
           id="path30"
           style="stroke:none" /></g></g></g></svg>
