<?xml version="1.0" encoding="UTF-8" standalone="no"?>
<svg
   width="24"
   height="24"
   viewBox="0 0 6.35 6.35"
   version="1.1"
   id="svg8"
   inkscape:version="1.3 (0e150ed6c4, 2023-07-21)"
   sodipodi:docname="icons_font_group.svg"
   xml:space="preserve"
   xmlns:inkscape="http://www.inkscape.org/namespaces/inkscape"
   xmlns:sodipodi="http://sodipodi.sourceforge.net/DTD/sodipodi-0.dtd"
   xmlns="http://www.w3.org/2000/svg"
   xmlns:svg="http://www.w3.org/2000/svg"
   xmlns:rdf="http://www.w3.org/1999/02/22-rdf-syntax-ns#"
   xmlns:cc="http://creativecommons.org/ns#"
   xmlns:dc="http://purl.org/dc/elements/1.1/"><defs
     id="defs2" /><sodipodi:namedview
     id="base"
     pagecolor="#ededed"
     bordercolor="#666666"
     borderopacity="1.0"
     inkscape:pageopacity="0.0"
     inkscape:pageshadow="2"
     inkscape:zoom="1"
     inkscape:cx="882"
     inkscape:cy="581.5"
     inkscape:document-units="px"
     inkscape:current-layer="layer1"
     inkscape:document-rotation="0"
     showgrid="false"
     units="px"
     inkscape:showpageshadow="true"
     borderlayer="false"
     inkscape:window-width="1920"
     inkscape:window-height="1017"
     inkscape:window-x="1072"
     inkscape:window-y="-8"
     inkscape:window-maximized="1"
     inkscape:pagecheckerboard="0"
     inkscape:deskcolor="#d1d1d1" /><metadata
     id="metadata5"><rdf:RDF><cc:Work
         rdf:about=""><dc:format>image/svg+xml</dc:format><dc:type
           rdf:resource="http://purl.org/dc/dcmitype/StillImage" /></cc:Work></rdf:RDF></metadata><g
     inkscape:label="Layer 1"
     inkscape:groupmode="layer"
     id="layer1"
     transform="translate(-423.52606,-323.0306)"><g
       id="g1"><rect
         style="opacity:0;fill:#ff18f5;fill-opacity:1;fill-rule:evenodd;stroke:none;stroke-width:0.264583;stroke-opacity:1"
         id="rect31"
         width="6.3499999"
         height="6.3499999"
         x="423.52606"
         y="323.03061" /><g
         style="fill:none"
         id="g32"
         transform="matrix(0.26458333,0,0,0.26458333,424.58438,324.08893)"><path
           d="m 8.74999,2.75006 c 0,-0.41421 -0.33579,-0.75 -0.75,-0.75 -0.41421,0 -0.75,0.33579 -0.75,0.75 V 7.25003 H 2.75 c -0.41421,0 -0.75,0.33578 -0.75,0.75 0,0.41421 0.33579,0.75 0.75,0.75 H 7.24999 L 7.25,13.25 C 7.25,13.6642 7.58579,14 8,14 8.41421,14 8.75,13.6642 8.75,13.25 L 8.74999,8.75003 H 13.25 c 0.4142,0 0.75,-0.33579 0.75,-0.75 0,-0.41422 -0.3358,-0.75 -0.75,-0.75 H 8.74999 Z"
           fill="#ffffff"
           id="path31"
           style="stroke:none" /></g></g></g></svg>
