<?xml version="1.0" encoding="UTF-8" standalone="no"?>
<svg
   width="24"
   height="24"
   viewBox="0 0 6.35 6.35"
   version="1.1"
   id="svg8"
   inkscape:version="1.3 (0e150ed6c4, 2023-07-21)"
   sodipodi:docname="icons_font_group.svg"
   xml:space="preserve"
   xmlns:inkscape="http://www.inkscape.org/namespaces/inkscape"
   xmlns:sodipodi="http://sodipodi.sourceforge.net/DTD/sodipodi-0.dtd"
   xmlns="http://www.w3.org/2000/svg"
   xmlns:svg="http://www.w3.org/2000/svg"
   xmlns:rdf="http://www.w3.org/1999/02/22-rdf-syntax-ns#"
   xmlns:cc="http://creativecommons.org/ns#"
   xmlns:dc="http://purl.org/dc/elements/1.1/"><defs
     id="defs2" /><sodipodi:namedview
     id="base"
     pagecolor="#ededed"
     bordercolor="#666666"
     borderopacity="1.0"
     inkscape:pageopacity="0.0"
     inkscape:pageshadow="2"
     inkscape:zoom="1"
     inkscape:cx="882"
     inkscape:cy="581.5"
     inkscape:document-units="px"
     inkscape:current-layer="layer1"
     inkscape:document-rotation="0"
     showgrid="false"
     units="px"
     inkscape:showpageshadow="true"
     borderlayer="false"
     inkscape:window-width="1920"
     inkscape:window-height="1017"
     inkscape:window-x="1072"
     inkscape:window-y="-8"
     inkscape:window-maximized="1"
     inkscape:pagecheckerboard="0"
     inkscape:deskcolor="#d1d1d1" /><metadata
     id="metadata5"><rdf:RDF><cc:Work
         rdf:about=""><dc:format>image/svg+xml</dc:format><dc:type
           rdf:resource="http://purl.org/dc/dcmitype/StillImage" /></cc:Work></rdf:RDF></metadata><g
     inkscape:label="Layer 1"
     inkscape:groupmode="layer"
     id="layer1"
     transform="translate(-529.37073,-323.0306)"><g
       id="g12"><rect
         style="opacity:0;fill:#ff18f5;fill-opacity:1;fill-rule:evenodd;stroke:none;stroke-width:0.264583;stroke-opacity:1"
         id="rect51"
         width="6.3499999"
         height="6.3499999"
         x="529.37073"
         y="323.03061" /><rect
         style="fill:#ffffff;fill-opacity:1;fill-rule:evenodd;stroke:none;stroke-width:0.396875;stroke-dasharray:none;stroke-opacity:1"
         id="rect52"
         width="4.3656249"
         height="4.6995916"
         x="530.36292"
         y="323.8558"
         rx="1.1753604" /><path
         style="color:#000000;fill:#d2d4d7;fill-rule:evenodd;stroke:none;-inkscape-stroke:none"
         d="m 531.5389,323.6582 c -0.75765,0 -1.375,0.6154 -1.375,1.37305 v 2.34961 c 0,0.75765 0.61735,1.37305 1.375,1.37305 h 2.01367 c 0.75766,0 1.375,-0.6154 1.375,-1.37305 v -2.34961 c 0,-0.75765 -0.61734,-1.37305 -1.375,-1.37305 z m 0,0.39649 h 2.01367 c 0.54465,0 0.97657,0.43191 0.97657,0.97656 v 2.34961 c 0,0.54465 -0.43192,0.97656 -0.97657,0.97656 h -2.01367 c -0.54464,0 -0.97851,-0.43191 -0.97851,-0.97656 v -2.34961 c 0,-0.54465 0.43387,-0.97656 0.97851,-0.97656 z"
         id="rect75" /></g></g></svg>
