<?xml version="1.0" encoding="UTF-8" standalone="no"?>
<svg
   width="24"
   height="24"
   viewBox="0 0 6.35 6.35"
   version="1.1"
   id="svg8"
   inkscape:version="1.3 (0e150ed6c4, 2023-07-21)"
   sodipodi:docname="icons_font_group.svg"
   xml:space="preserve"
   xmlns:inkscape="http://www.inkscape.org/namespaces/inkscape"
   xmlns:sodipodi="http://sodipodi.sourceforge.net/DTD/sodipodi-0.dtd"
   xmlns="http://www.w3.org/2000/svg"
   xmlns:svg="http://www.w3.org/2000/svg"
   xmlns:rdf="http://www.w3.org/1999/02/22-rdf-syntax-ns#"
   xmlns:cc="http://creativecommons.org/ns#"
   xmlns:dc="http://purl.org/dc/elements/1.1/"><defs
     id="defs2" /><sodipodi:namedview
     id="base"
     pagecolor="#ededed"
     bordercolor="#666666"
     borderopacity="1.0"
     inkscape:pageopacity="0.0"
     inkscape:pageshadow="2"
     inkscape:zoom="1"
     inkscape:cx="882"
     inkscape:cy="581.5"
     inkscape:document-units="px"
     inkscape:current-layer="layer1"
     inkscape:document-rotation="0"
     showgrid="false"
     units="px"
     inkscape:showpageshadow="true"
     borderlayer="false"
     inkscape:window-width="1920"
     inkscape:window-height="1017"
     inkscape:window-x="1072"
     inkscape:window-y="-8"
     inkscape:window-maximized="1"
     inkscape:pagecheckerboard="0"
     inkscape:deskcolor="#d1d1d1" /><metadata
     id="metadata5"><rdf:RDF><cc:Work
         rdf:about=""><dc:format>image/svg+xml</dc:format><dc:type
           rdf:resource="http://purl.org/dc/dcmitype/StillImage" /></cc:Work></rdf:RDF></metadata><g
     inkscape:label="Layer 1"
     inkscape:groupmode="layer"
     id="layer1"
     transform="translate(-462.01505,-323.0306)"><g
       id="g5"><rect
         style="opacity:0;fill:#ff18f5;fill-opacity:1;fill-rule:evenodd;stroke:none;stroke-width:0.264583;stroke-opacity:1"
         id="rect35"
         width="6.3499999"
         height="6.3499999"
         x="462.01505"
         y="323.03061" /><g
         style="fill:none"
         id="g36"
         transform="matrix(0.26458333,0,0,0.26458333,463.60251,323.95665)"><path
           d="M 6.92308,17 V 15.4986 C 8.48901,15.4179 9.69231,14.9981 10.6154,14.2393 11.5385,13.4805 12,12.4796 12,11.3172 12,10.0579 11.6209,9.1377 10.7967,8.55651 9.95604,7.89459 8.76923,7.37797 7.02198,7.05508 H 6.92308 V 3.18044 C 8.12637,3.34188 9.13187,3.68091 10.1538,4.35897 L 11.6374,2.51852 C 10.1538,1.59829 8.58791,1.09782 6.93956,1.01709 V 0 H 5.55494 V 1.00095 C 4.17033,1.08167 2.96703,1.50142 2.04396,2.26021 1.12088,3.01899 0.642857,4.01994 0.642857,5.18234 c 0,1.16239 0.379123,2.09876 1.203293,2.67996 0.74176,0.58119 2.02748,1.08167 3.69231,1.4207 v 3.9392 C 4.23626,13.0608 2.95055,12.4634 1.66484,11.4625 L 0,13.2222 c 1.66484,1.34 3.51099,2.0988 5.53846,2.2602 V 17 Z m 0.0989,-7.29725 c 0.92307,0.24217 1.48351,0.50045 1.84615,0.75875 0.28022,0.3391 0.46154,0.662 0.46154,1.1786 0,0.5005 -0.18132,0.8395 -0.64286,1.1785 -0.46154,0.339 -1.02198,0.5005 -1.66483,0.5812 z M 3.79121,6.10256 C 3.51099,5.8604 3.32967,5.44065 3.32967,5.02089 3.32967,4.52042 3.51099,4.18139 3.87363,3.84235 4.33516,3.50332 4.7967,3.34188 5.53846,3.26116 V 6.86135 C 4.61538,6.60304 4.07143,6.36087 3.79121,6.10256 Z"
           fill="#14804a"
           id="path35"
           style="stroke:none" /></g></g></g></svg>
