<?xml version="1.0" encoding="UTF-8" standalone="no"?>
<svg
   width="24"
   height="24"
   viewBox="0 0 6.35 6.35"
   version="1.1"
   id="svg8"
   inkscape:version="1.3 (0e150ed6c4, 2023-07-21)"
   sodipodi:docname="icons_font_group.svg"
   xml:space="preserve"
   xmlns:inkscape="http://www.inkscape.org/namespaces/inkscape"
   xmlns:sodipodi="http://sodipodi.sourceforge.net/DTD/sodipodi-0.dtd"
   xmlns="http://www.w3.org/2000/svg"
   xmlns:svg="http://www.w3.org/2000/svg"
   xmlns:rdf="http://www.w3.org/1999/02/22-rdf-syntax-ns#"
   xmlns:cc="http://creativecommons.org/ns#"
   xmlns:dc="http://purl.org/dc/elements/1.1/"><defs
     id="defs2" /><sodipodi:namedview
     id="base"
     pagecolor="#ededed"
     bordercolor="#666666"
     borderopacity="1.0"
     inkscape:pageopacity="0.0"
     inkscape:pageshadow="2"
     inkscape:zoom="1"
     inkscape:cx="882"
     inkscape:cy="581.5"
     inkscape:document-units="px"
     inkscape:current-layer="layer1"
     inkscape:document-rotation="0"
     showgrid="false"
     units="px"
     inkscape:showpageshadow="true"
     borderlayer="false"
     inkscape:window-width="1920"
     inkscape:window-height="1017"
     inkscape:window-x="1072"
     inkscape:window-y="-8"
     inkscape:window-maximized="1"
     inkscape:pagecheckerboard="0"
     inkscape:deskcolor="#d1d1d1" /><metadata
     id="metadata5"><rdf:RDF><cc:Work
         rdf:about=""><dc:format>image/svg+xml</dc:format><dc:type
           rdf:resource="http://purl.org/dc/dcmitype/StillImage" /></cc:Work></rdf:RDF></metadata><g
     inkscape:label="Layer 1"
     inkscape:groupmode="layer"
     id="layer1"
     transform="translate(-519.74848,-323.0306)"><g
       id="g11"><rect
         style="opacity:0;fill:#ff18f5;fill-opacity:1;fill-rule:evenodd;stroke:none;stroke-width:0.264583;stroke-opacity:1"
         id="rect45"
         width="6.3499999"
         height="6.3499999"
         x="519.74847"
         y="323.03061" /><g
         style="fill:none"
         id="g46"
         transform="matrix(0.26458333,0,0,0.26458333,520.80679,324.08894)"><path
           d="M 13.0982,5.10827 C 12.6795,5.52693 12.4702,5.73626 12.2506,5.77677 12.031,5.81728 11.8868,5.67315 11.5986,5.3849 L 10.6151,4.40144 C 10.3269,4.11319 10.1828,3.96906 10.2233,3.74946 10.2638,3.52985 10.4731,3.32052 10.8918,2.90186 l 0.2266,-0.22664 c 0.4187,-0.41866 0.628,-0.62799 0.8476,-0.6685 0.2196,-0.04051 0.3637,0.10362 0.652,0.39187 l 0.9834,0.98345 c 0.2883,0.28826 0.4324,0.43238 0.3919,0.65199 -0.0405,0.21961 -0.2498,0.42894 -0.6685,0.84759 z"
           fill="#4b85fa"
           id="path45"
           style="stroke:none" /><path
           d="M 2.95409,13.9107 C 2.45423,14.0029 2.2043,14.049 2.07766,13.9224 1.95102,13.7957 1.99712,13.5458 2.08933,13.0459 L 2.31178,11.84 C 2.35176,11.6233 2.37175,11.515 2.43008,11.4101 2.48841,11.3052 2.57916,11.2145 2.76067,11.033 L 8.31441,5.47921 C 8.73306,5.06056 8.94239,4.85123 9.162,4.81072 9.38161,4.77021 9.52573,4.91433 9.81399,5.20259 l 0.98341,0.98345 c 0.2883,0.28826 0.4324,0.43238 0.3919,0.65199 -0.0405,0.21961 -0.2498,0.42894 -0.6685,0.84759 L 4.96708,13.2394 C 4.78557,13.4209 4.69482,13.5116 4.58994,13.5699 4.48507,13.6283 4.37671,13.6483 4.16,13.6882 Z"
           fill="#4b85fa"
           id="path46"
           style="stroke:none" /></g></g></g></svg>
