<?xml version="1.0" encoding="UTF-8" standalone="no"?>
<svg
   width="24"
   height="24"
   viewBox="0 0 6.35 6.35"
   version="1.1"
   id="svg8"
   inkscape:version="1.3 (0e150ed6c4, 2023-07-21)"
   sodipodi:docname="icons_font_group.svg"
   xml:space="preserve"
   xmlns:inkscape="http://www.inkscape.org/namespaces/inkscape"
   xmlns:sodipodi="http://sodipodi.sourceforge.net/DTD/sodipodi-0.dtd"
   xmlns="http://www.w3.org/2000/svg"
   xmlns:svg="http://www.w3.org/2000/svg"
   xmlns:rdf="http://www.w3.org/1999/02/22-rdf-syntax-ns#"
   xmlns:cc="http://creativecommons.org/ns#"
   xmlns:dc="http://purl.org/dc/elements/1.1/"><defs
     id="defs2" /><sodipodi:namedview
     id="base"
     pagecolor="#ededed"
     bordercolor="#666666"
     borderopacity="1.0"
     inkscape:pageopacity="0.0"
     inkscape:pageshadow="2"
     inkscape:zoom="1"
     inkscape:cx="882"
     inkscape:cy="581.5"
     inkscape:document-units="px"
     inkscape:current-layer="layer1"
     inkscape:document-rotation="0"
     showgrid="false"
     units="px"
     inkscape:showpageshadow="true"
     borderlayer="false"
     inkscape:window-width="1920"
     inkscape:window-height="1017"
     inkscape:window-x="1072"
     inkscape:window-y="-8"
     inkscape:window-maximized="1"
     inkscape:pagecheckerboard="0"
     inkscape:deskcolor="#d1d1d1" /><metadata
     id="metadata5"><rdf:RDF><cc:Work
         rdf:about=""><dc:format>image/svg+xml</dc:format><dc:type
           rdf:resource="http://purl.org/dc/dcmitype/StillImage" /></cc:Work></rdf:RDF></metadata><g
     inkscape:label="Layer 1"
     inkscape:groupmode="layer"
     id="layer1"
     transform="translate(-433.14832,-323.0306)"><g
       id="g2"><rect
         style="opacity:0;fill:#ff18f5;fill-opacity:1;fill-rule:evenodd;stroke:none;stroke-width:0.264583;stroke-opacity:1"
         id="rect49"
         width="6.3499999"
         height="6.3499999"
         x="433.14832"
         y="323.03061" /><g
         style="fill:none"
         id="g50"
         transform="matrix(0.26458333,0,0,0.26458333,433.67745,323.95665)"><path
           d="m 16.0345,17 -1.3793,-1.3807 1.5517,-1.6396 H 12.069 v -1.9848 h 4.1379 L 14.6552,10.3553 16.0345,8.97462 20,12.9442 Z M 1.98276,13.9797 c -0.51724,0 -1.034484,-0.1726 -1.379312,-0.6041 C 0.172414,12.9442 0,12.5127 0,11.9949 V 1.98477 C 0,1.46701 0.172414,0.949239 0.603448,0.604061 1.03448,0.258883 1.46552,0 1.98276,0 H 15 c 0.5172,0 1.0345,0.172589 1.3793,0.604061 0.431,0.431469 0.6035,0.862949 0.6035,1.380709 v 5.09137 c -0.1725,0 -0.3449,-0.08629 -0.5173,-0.08629 -0.1724,0 -0.3448,0 -0.5172,0 -0.1724,0 -0.3449,0 -0.5173,0 -0.1724,0 -0.3448,0 -0.5172,0.08629 V 3.36548 L 8.27586,7.93909 1.98276,3.36548 v 8.54312 h 8.10344 c 0,0.1726 -0.0862,0.3452 -0.0862,0.5178 0,0.1726 0,0.3452 0,0.5178 0,0.1726 0,0.3451 0,0.5177 0,0.1726 0,0.3452 0.0862,0.5178 z M 3.44828,1.98477 8.36207,5.52284 13.5345,1.98477 Z"
           fill="#3d70d2"
           id="path49"
           style="stroke:none" /></g></g></g></svg>
