<?xml version="1.0" encoding="UTF-8" standalone="no"?>
<svg
   width="24"
   height="24"
   viewBox="0 0 6.35 6.35"
   version="1.1"
   id="svg8"
   inkscape:version="1.3 (0e150ed6c4, 2023-07-21)"
   sodipodi:docname="icons_font_group.svg"
   xml:space="preserve"
   xmlns:inkscape="http://www.inkscape.org/namespaces/inkscape"
   xmlns:sodipodi="http://sodipodi.sourceforge.net/DTD/sodipodi-0.dtd"
   xmlns="http://www.w3.org/2000/svg"
   xmlns:svg="http://www.w3.org/2000/svg"
   xmlns:rdf="http://www.w3.org/1999/02/22-rdf-syntax-ns#"
   xmlns:cc="http://creativecommons.org/ns#"
   xmlns:dc="http://purl.org/dc/elements/1.1/"><defs
     id="defs2" /><sodipodi:namedview
     id="base"
     pagecolor="#ededed"
     bordercolor="#666666"
     borderopacity="1.0"
     inkscape:pageopacity="0.0"
     inkscape:pageshadow="2"
     inkscape:zoom="1"
     inkscape:cx="882"
     inkscape:cy="581.5"
     inkscape:document-units="px"
     inkscape:current-layer="layer1"
     inkscape:document-rotation="0"
     showgrid="false"
     units="px"
     inkscape:showpageshadow="true"
     borderlayer="false"
     inkscape:window-width="1920"
     inkscape:window-height="1017"
     inkscape:window-x="1072"
     inkscape:window-y="-8"
     inkscape:window-maximized="1"
     inkscape:pagecheckerboard="0"
     inkscape:deskcolor="#d1d1d1" /><metadata
     id="metadata5"><rdf:RDF><cc:Work
         rdf:about=""><dc:format>image/svg+xml</dc:format><dc:type
           rdf:resource="http://purl.org/dc/dcmitype/StillImage" /></cc:Work></rdf:RDF></metadata><g
     inkscape:label="Layer 1"
     inkscape:groupmode="layer"
     id="layer1"
     transform="translate(-442.77054,-323.0306)"><g
       id="g3"><rect
         style="opacity:0;fill:#ff18f5;fill-opacity:1;fill-rule:evenodd;stroke:none;stroke-width:0.264583;stroke-opacity:1"
         id="rect41"
         width="6.3499999"
         height="6.3499999"
         x="442.77054"
         y="323.03061" /><g
         style="fill:none"
         id="g42"
         transform="matrix(0.26458333,0,0,0.26458333,443.29971,324.22123)"><path
           d="M 15.4545,9.375 V 6.5625 h -2.7272 v -1.875 h 2.7272 V 1.875 h 1.8182 V 4.6875 H 20 v 1.875 H 17.2727 V 9.375 Z M 7.27273,7.5 c -1,0 -1.85606,-0.36719 -2.56818,-1.10156 C 3.99242,5.66406 3.63636,4.78125 3.63636,3.75 3.63636,2.71875 3.99242,1.83594 4.70455,1.10156 5.41667,0.367188 6.27273,0 7.27273,0 c 1,0 1.85606,0.367188 2.56818,1.10156 C 10.553,1.83594 10.9091,2.71875 10.9091,3.75 10.9091,4.78125 10.553,5.66406 9.84091,6.39844 9.12879,7.13281 8.27273,7.5 7.27273,7.5 Z M 0,15 V 12.375 C 0,11.8438 0.132576,11.3555 0.397727,10.9102 0.662879,10.4648 1.01515,10.125 1.45455,9.89062 2.39394,9.40625 3.34848,9.04297 4.31818,8.80078 5.28788,8.55859 6.27273,8.4375 7.27273,8.4375 c 1,0 1.98485,0.12109 2.95457,0.36328 0.9697,0.24219 1.9242,0.60547 2.8636,1.08984 0.4394,0.23438 0.7917,0.57418 1.0568,1.01958 0.2652,0.4453 0.3978,0.9336 0.3978,1.4648 V 15 Z M 1.81818,13.125 H 12.7273 v -0.75 c 0,-0.1719 -0.0417,-0.3281 -0.125,-0.4688 -0.0834,-0.1406 -0.1932,-0.25 -0.3296,-0.3281 C 11.4545,11.1562 10.6288,10.8398 9.79545,10.6289 8.96212,10.418 8.12121,10.3125 7.27273,10.3125 c -0.84849,0 -1.6894,0.1055 -2.52273,0.3164 -0.83333,0.2109 -1.65909,0.5273 -2.47727,0.9492 -0.13637,0.0781 -0.24621,0.1875 -0.32955,0.3281 -0.08333,0.1407 -0.125,0.2969 -0.125,0.4688 z m 5.45455,-7.5 c 0.5,0 0.92803,-0.18359 1.28409,-0.55078 C 8.91288,4.70703 9.09091,4.26562 9.09091,3.75 9.09091,3.23438 8.91288,2.79297 8.55682,2.42578 8.20076,2.05859 7.77273,1.875 7.27273,1.875 6.77273,1.875 6.3447,2.05859 5.98864,2.42578 5.63258,2.79297 5.45455,3.23438 5.45455,3.75 c 0,0.51562 0.17803,0.95703 0.53409,1.32422 C 6.3447,5.44141 6.77273,5.625 7.27273,5.625 Z"
           fill="#3d70d2"
           id="path41"
           style="stroke:none" /></g></g></g></svg>
